<svg width="1614" height="210" viewBox="0 0 1614 210" fill="none" xmlns="http://www.w3.org/2000/svg">
<path d="M50.7169 207.558L-4.44028e-06 3.62175e-05H46.6126L82.9646 161.532L119.61 3.62175e-05H175.017L211.076 161.532L246.549 3.62175e-05H290.816L240.685 207.558H182.639L146.287 50.4238L110.522 207.558H50.7169ZM364.665 209.61C348.444 209.61 334.665 206.386 323.329 199.936C311.994 193.486 303.297 184.398 297.238 172.672C291.179 160.75 288.15 146.874 288.15 131.043C288.15 115.017 291.277 101.043 297.531 89.1211C303.785 77.0037 312.58 67.5248 323.916 60.6844C335.447 53.844 349.03 50.4238 364.665 50.4238C376.392 50.4238 386.652 52.3782 395.447 56.287C404.437 60.1958 411.962 65.6682 418.021 72.704C424.275 79.7399 428.868 87.9484 431.799 97.3296C434.926 106.515 436.392 116.483 436.197 127.232C436.197 129.968 436.099 132.607 435.903 135.147C435.708 137.688 435.317 140.229 434.731 142.77H328.9C329.486 148.633 331.147 154.007 333.883 158.893C336.619 163.779 340.431 167.688 345.317 170.62C350.398 173.356 356.652 174.724 364.079 174.724C368.965 174.724 373.46 174.236 377.564 173.258C381.669 172.086 385.186 170.327 388.118 167.981C391.05 165.636 393.102 162.9 394.274 159.773H434.731C432.19 171.304 427.402 180.783 420.366 188.21C413.525 195.636 405.219 201.109 395.447 204.627C385.675 207.949 375.414 209.61 364.665 209.61ZM329.779 114.04H396.913C396.717 108.763 395.349 103.877 392.809 99.3817C390.463 94.6911 386.848 90.9778 381.962 88.2416C377.271 85.31 371.212 83.8442 363.786 83.8442C356.359 83.8442 350.105 85.31 345.023 88.2416C340.137 91.1732 336.424 94.9843 333.883 99.6749C331.538 104.17 330.17 108.958 329.779 114.04ZM511.596 209.61C495.961 209.61 482.964 206.092 472.606 199.057C462.443 191.825 454.821 182.249 449.739 170.327C444.658 158.209 442.117 144.822 442.117 130.164C442.117 114.724 444.853 101.043 450.326 89.1211C455.798 77.0037 463.909 67.5248 474.658 60.6844C485.407 53.844 498.795 50.4238 514.821 50.4238C520.293 50.4238 525.668 51.1078 530.945 52.4759C536.417 53.6485 541.401 55.5052 545.896 58.046C550.587 60.3913 554.593 63.5183 557.916 67.4271V3.62175e-05H598.958V207.558H559.088L558.502 190.262C554.984 194.757 550.684 198.47 545.603 201.402C540.717 204.138 535.44 206.19 529.772 207.558C524.104 208.926 518.046 209.61 511.596 209.61ZM519.805 172.672C528.6 172.672 535.733 170.62 541.206 166.516C546.873 162.411 551.075 157.134 553.811 150.685C556.548 144.235 557.916 137.297 557.916 129.87C557.916 122.248 556.548 115.31 553.811 109.056C551.271 102.606 547.166 97.525 541.499 93.8116C536.026 89.9028 528.795 87.9484 519.805 87.9484C510.814 87.9484 503.583 90.0005 498.111 94.1048C492.638 98.2091 488.73 103.584 486.384 110.229C484.235 116.678 483.16 123.616 483.16 131.043C483.16 136.515 483.746 141.792 484.919 146.874C486.287 151.76 488.436 156.157 491.368 160.066C494.3 163.975 498.111 167.102 502.801 169.447C507.492 171.597 513.16 172.672 519.805 172.672ZM745.019 209.61C737.788 209.61 730.361 208.829 722.739 207.265C715.117 205.702 708.081 203.063 701.631 199.35C695.182 195.441 689.709 190.262 685.214 183.812C680.719 177.167 677.787 168.959 676.419 159.187H718.048C719.221 162.705 721.273 165.734 724.205 168.275C727.332 170.815 730.85 172.672 734.758 173.845C738.863 175.017 742.967 175.604 747.071 175.604C749.807 175.604 752.543 175.408 755.28 175.017C758.016 174.626 760.557 173.845 762.902 172.672C765.247 171.499 767.104 170.034 768.472 168.275C769.84 166.32 770.524 163.877 770.524 160.946C770.524 157.819 769.547 155.376 767.592 153.617C765.638 151.858 762.902 150.489 759.384 149.512C755.866 148.34 751.859 147.265 747.364 146.288C739.351 144.529 730.752 142.574 721.566 140.424C712.38 138.274 704.465 135.147 697.82 131.043C695.084 129.089 692.641 126.939 690.491 124.594C688.341 122.248 686.582 119.61 685.214 116.678C683.846 113.747 682.771 110.717 681.989 107.59C681.208 104.268 680.817 100.75 680.817 97.0364C680.817 88.6325 682.576 81.4989 686.094 75.6356C689.807 69.577 694.693 64.691 700.752 60.9776C706.81 57.2642 713.553 54.6257 720.98 53.0622C728.407 51.3033 736.029 50.4238 743.846 50.4238C754.4 50.4238 764.172 52.1827 773.162 55.7007C782.153 59.0232 789.58 64.3001 795.443 71.5314C801.306 78.5673 804.922 87.753 806.29 99.0886H767.006C766.224 94.7888 763.586 91.3686 759.091 88.8279C754.596 86.0917 749.026 84.7236 742.381 84.7236C740.035 84.7236 737.495 84.9191 734.758 85.31C732.218 85.7008 729.872 86.3849 727.722 87.3621C725.573 88.3393 723.814 89.7074 722.446 91.4664C721.077 93.0299 720.393 95.1797 720.393 97.9159C720.393 100.066 720.98 102.02 722.152 103.779C723.521 105.538 725.377 107.004 727.722 108.177C730.263 109.349 733.293 110.424 736.81 111.401C743.455 112.965 750.1 114.431 756.745 115.799C763.586 116.971 769.645 118.242 774.921 119.61C781.371 120.978 787.234 123.225 792.511 126.353C797.983 129.48 802.381 133.779 805.703 139.252C809.221 144.529 810.98 151.467 810.98 160.066C810.98 169.838 809.026 177.949 805.117 184.398C801.208 190.653 795.931 195.636 789.286 199.35C782.837 203.063 775.703 205.702 767.886 207.265C760.263 208.829 752.641 209.61 745.019 209.61ZM890.924 209.61C874.702 209.61 860.924 206.386 849.588 199.936C838.253 193.486 829.556 184.398 823.497 172.672C817.438 160.75 814.409 146.874 814.409 131.043C814.409 115.017 817.536 101.043 823.79 89.1211C830.044 77.0037 838.839 67.5248 850.175 60.6844C861.706 53.844 875.289 50.4238 890.924 50.4238C902.65 50.4238 912.911 52.3782 921.706 56.287C930.696 60.1958 938.221 65.6682 944.279 72.704C950.533 79.7399 955.126 87.9484 958.058 97.3296C961.185 106.515 962.651 116.483 962.455 127.232C962.455 129.968 962.358 132.607 962.162 135.147C961.967 137.688 961.576 140.229 960.99 142.77H855.158C855.745 148.633 857.406 154.007 860.142 158.893C862.878 163.779 866.689 167.688 871.575 170.62C876.657 173.356 882.911 174.724 890.338 174.724C895.224 174.724 899.719 174.236 903.823 173.258C907.927 172.086 911.445 170.327 914.377 167.981C917.309 165.636 919.361 162.9 920.533 159.773H960.99C958.449 171.304 953.661 180.783 946.625 188.21C939.784 195.636 931.478 201.109 921.706 204.627C911.934 207.949 901.673 209.61 890.924 209.61ZM856.038 114.04H923.172C922.976 108.763 921.608 103.877 919.067 99.3817C916.722 94.6911 913.107 90.9778 908.221 88.2416C903.53 85.31 897.471 83.8442 890.045 83.8442C882.618 83.8442 876.364 85.31 871.282 88.2416C866.396 91.1732 862.683 94.9843 860.142 99.6749C857.797 104.17 856.429 108.958 856.038 114.04ZM1046.29 209.61C1030.46 209.61 1016.87 206.386 1005.54 199.936C994.398 193.486 985.897 184.398 980.034 172.672C974.17 160.75 971.239 146.776 971.239 130.75C971.239 114.528 974.268 100.457 980.327 88.5347C986.385 76.4174 995.083 67.0362 1006.42 60.3913C1017.95 53.7463 1031.83 50.4238 1048.05 50.4238C1060.56 50.4238 1071.7 52.6713 1081.47 57.1665C1091.24 61.6616 1099.06 68.1112 1104.92 76.5151C1110.98 84.9191 1114.5 95.2775 1115.47 107.59H1075.31C1073.55 100.75 1070.13 95.7661 1065.05 92.639C1060.16 89.5119 1054.3 87.9484 1047.46 87.9484C1038.67 87.9484 1031.63 90.0983 1026.35 94.398C1021.27 98.6977 1017.56 104.17 1015.21 110.815C1013.06 117.46 1011.99 124.105 1011.99 130.75C1011.99 137.981 1013.16 144.822 1015.51 151.271C1017.85 157.525 1021.56 162.705 1026.65 166.809C1031.92 170.718 1038.76 172.672 1047.17 172.672C1054.2 172.672 1060.36 171.109 1065.64 167.981C1070.91 164.659 1074.33 159.577 1075.9 152.737H1116.94C1115.96 165.441 1112.15 175.995 1105.51 184.398C1098.86 192.802 1090.36 199.154 1080 203.454C1069.84 207.558 1058.6 209.61 1046.29 209.61ZM1127.06 207.558V53.0622H1164L1166.64 71.5314C1170.55 65.6682 1174.94 61.2707 1179.83 58.3391C1184.72 55.2121 1189.8 53.1599 1195.07 52.1827C1200.35 51.0101 1205.73 50.4238 1211.2 50.4238C1213.74 50.4238 1216.08 50.5215 1218.23 50.7169C1220.38 50.7169 1221.95 50.7169 1222.92 50.7169V90.2937H1213.25C1204.06 90.2937 1196.05 91.8572 1189.21 94.9843C1182.37 98.1113 1177.09 102.997 1173.38 109.642C1169.86 116.287 1168.1 124.789 1168.1 135.147V207.558H1127.06ZM1295.28 209.61C1279.06 209.61 1265.28 206.386 1253.94 199.936C1242.61 193.486 1233.91 184.398 1227.85 172.672C1221.79 160.75 1218.77 146.874 1218.77 131.043C1218.77 115.017 1221.89 101.043 1228.15 89.1211C1234.4 77.0037 1243.2 67.5248 1254.53 60.6844C1266.06 53.844 1279.65 50.4238 1295.28 50.4238C1307.01 50.4238 1317.27 52.3782 1326.06 56.287C1335.05 60.1958 1342.58 65.6682 1348.64 72.704C1354.89 79.7399 1359.48 87.9484 1362.41 97.3296C1365.54 106.515 1367.01 116.483 1366.81 127.232C1366.81 129.968 1366.71 132.607 1366.52 135.147C1366.32 137.688 1365.93 140.229 1365.35 142.77H1259.51C1260.1 148.633 1261.76 154.007 1264.5 158.893C1267.23 163.779 1271.05 167.688 1275.93 170.62C1281.01 173.356 1287.27 174.724 1294.69 174.724C1299.58 174.724 1304.08 174.236 1308.18 173.258C1312.28 172.086 1315.8 170.327 1318.73 167.981C1321.66 165.636 1323.72 162.9 1324.89 159.773H1365.35C1362.81 171.304 1358.02 180.783 1350.98 188.21C1344.14 195.636 1335.83 201.109 1326.06 204.627C1316.29 207.949 1306.03 209.61 1295.28 209.61ZM1260.39 114.04H1327.53C1327.33 108.763 1325.96 103.877 1323.42 99.3817C1321.08 94.6911 1317.46 90.9778 1312.58 88.2416C1307.89 85.31 1301.83 83.8442 1294.4 83.8442C1286.97 83.8442 1280.72 85.31 1275.64 88.2416C1270.75 91.1732 1267.04 94.9843 1264.5 99.6749C1262.15 104.17 1260.79 108.958 1260.39 114.04ZM1441.63 209.61C1424.23 209.61 1411.33 204.724 1402.93 194.952C1394.72 185.18 1390.62 171.793 1390.62 154.789V89.7074H1367.46V53.0622H1390.62V11.4333H1431.66V53.0622H1478.56V89.7074H1431.66V146.288C1431.66 151.369 1432.24 155.766 1433.42 159.48C1434.78 163.193 1436.93 166.125 1439.87 168.275C1442.99 170.229 1447.2 171.206 1452.47 171.206C1457.16 171.206 1461.07 170.522 1464.2 169.154C1467.52 167.591 1470.26 165.929 1472.41 164.17L1485.31 195.832C1481.2 199.154 1476.61 201.89 1471.53 204.04C1466.64 205.995 1461.66 207.363 1456.58 208.145C1451.49 209.122 1446.51 209.61 1441.63 209.61ZM1548.01 209.61C1540.77 209.61 1533.35 208.829 1525.73 207.265C1518.1 205.702 1511.07 203.063 1504.62 199.35C1498.17 195.441 1492.7 190.262 1488.2 183.812C1483.71 177.167 1480.77 168.959 1479.41 159.187H1521.04C1522.21 162.705 1524.26 165.734 1527.19 168.275C1530.32 170.815 1533.84 172.672 1537.75 173.845C1541.85 175.017 1545.95 175.604 1550.06 175.604C1552.79 175.604 1555.53 175.408 1558.27 175.017C1561 174.626 1563.54 173.845 1565.89 172.672C1568.23 171.499 1570.09 170.034 1571.46 168.275C1572.83 166.32 1573.51 163.877 1573.51 160.946C1573.51 157.819 1572.53 155.376 1570.58 153.617C1568.63 151.858 1565.89 150.489 1562.37 149.512C1558.85 148.34 1554.85 147.265 1550.35 146.288C1542.34 144.529 1533.74 142.574 1524.55 140.424C1515.37 138.274 1507.45 135.147 1500.81 131.043C1498.07 129.089 1495.63 126.939 1493.48 124.594C1491.33 122.248 1489.57 119.61 1488.2 116.678C1486.83 113.747 1485.76 110.717 1484.98 107.59C1484.19 104.268 1483.8 100.75 1483.8 97.0364C1483.8 88.6325 1485.56 81.4989 1489.08 75.6356C1492.79 69.577 1497.68 64.691 1503.74 60.9776C1509.8 57.2642 1516.54 54.6257 1523.97 53.0622C1531.39 51.3033 1539.02 50.4238 1546.83 50.4238C1557.39 50.4238 1567.16 52.1827 1576.15 55.7007C1585.14 59.0232 1592.57 64.3001 1598.43 71.5314C1604.29 78.5673 1607.91 87.753 1609.28 99.0886H1569.99C1569.21 94.7888 1566.57 91.3686 1562.08 88.8279C1557.58 86.0917 1552.01 84.7236 1545.37 84.7236C1543.02 84.7236 1540.48 84.9191 1537.75 85.31C1535.2 85.7008 1532.86 86.3849 1530.71 87.3621C1528.56 88.3393 1526.8 89.7074 1525.43 91.4664C1524.06 93.0299 1523.38 95.1797 1523.38 97.9159C1523.38 100.066 1523.97 102.02 1525.14 103.779C1526.51 105.538 1528.36 107.004 1530.71 108.177C1533.25 109.349 1536.28 110.424 1539.8 111.401C1546.44 112.965 1553.09 114.431 1559.73 115.799C1566.57 116.971 1572.63 118.242 1577.91 119.61C1584.36 120.978 1590.22 123.225 1595.5 126.353C1600.97 129.48 1605.37 133.779 1608.69 139.252C1612.21 144.529 1613.97 151.467 1613.97 160.066C1613.97 169.838 1612.01 177.949 1608.1 184.398C1604.2 190.653 1598.92 195.636 1592.27 199.35C1585.82 203.063 1578.69 205.702 1570.87 207.265C1563.25 208.829 1555.63 209.61 1548.01 209.61Z" fill="#E8452C"/>
</svg>
